<svg data-v-423bf9ae="" xmlns="http://www.w3.org/2000/svg" viewBox="0 0 300 103" class="iconLeft"><!----><!----><!----><g data-v-423bf9ae="" id="3da03856-d3e6-4491-93b2-0e7f7add2355" fill="#7DE38D" transform="matrix(4.081632614135742,0,0,4.081632614135742,111.26039123535156,11.72492504119873)"><path d="M6.46 7.56C7.39 7.14 8.00 6.30 8.00 5.18C8.00 3.54 6.70 2.38 5.09 2.38L1.28 2.38L1.28 12.88L5.46 12.88C7.05 12.88 8.33 11.74 8.33 10.12C8.33 8.84 7.56 7.93 6.46 7.56ZM6.88 5.27C6.88 6.30 6.02 7.09 4.97 7.09L2.38 7.09L2.38 3.50L4.97 3.50C6.02 3.50 6.88 4.23 6.88 5.27ZM5.32 11.76L2.38 11.76L2.38 8.17L5.32 8.17C6.35 8.17 7.21 8.96 7.21 9.99C7.21 11.03 6.35 11.76 5.32 11.76ZM14.93 5.88L12.76 11.62L10.52 5.88L9.31 5.88L12.18 12.93L10.50 17.08L11.66 17.08L13.14 13.41L16.15 5.88ZM21.23 5.74C20.23 5.74 19.34 6.14 18.67 6.79L18.67 5.88L17.59 5.88L17.59 17.08L18.67 17.08L18.67 11.97C19.34 12.62 20.23 13.02 21.23 13.02C23.24 13.02 24.87 11.39 24.87 9.38C24.87 7.37 23.24 5.74 21.23 5.74ZM21.23 11.94C19.81 11.94 18.67 10.80 18.67 9.38C18.67 7.96 19.81 6.83 21.23 6.83C22.65 6.83 23.78 7.96 23.78 9.38C23.78 10.80 22.65 11.94 21.23 11.94ZM34.44 11.97C34.05 11.97 33.72 11.71 33.72 11.06L33.72 5.88L32.64 5.88L32.64 6.79C31.99 6.14 31.08 5.74 30.08 5.74C28.07 5.74 26.44 7.37 26.44 9.38C26.44 11.39 28.07 13.02 30.08 13.02C31.13 13.02 32.08 12.53 32.74 11.81C32.97 12.53 33.53 13.02 34.35 13.02C34.55 13.02 34.74 12.97 34.88 12.88L34.88 11.97ZM30.08 11.94C28.67 11.94 27.53 10.80 27.53 9.38C27.53 7.96 28.67 6.83 30.08 6.83C31.48 6.83 32.64 7.96 32.64 9.38C32.64 10.80 31.48 11.94 30.08 11.94ZM38.10 13.02C39.32 13.02 40.34 12.20 40.34 10.99C40.34 9.73 39.29 9.24 38.38 8.87C37.52 8.51 37.08 8.31 37.08 7.70C37.08 7.11 37.49 6.83 38.06 6.83C38.52 6.83 38.92 7.02 39.11 7.39L40.06 6.90C39.80 6.27 38.90 5.74 38.01 5.74C36.98 5.74 35.98 6.46 35.98 7.74C35.98 8.84 36.72 9.40 37.96 9.87C38.80 10.20 39.25 10.43 39.25 10.99C39.25 11.60 38.73 11.95 38.10 11.95C37.45 11.95 36.82 11.59 36.72 11.08L35.67 11.50C35.93 12.34 36.98 13.02 38.10 13.02ZM43.89 13.02C45.12 13.02 46.13 12.20 46.13 10.99C46.13 9.73 45.08 9.24 44.17 8.87C43.31 8.51 42.88 8.31 42.88 7.70C42.88 7.11 43.28 6.83 43.86 6.83C44.31 6.83 44.71 7.02 44.91 7.39L45.85 6.90C45.59 6.27 44.70 5.74 43.80 5.74C42.77 5.74 41.77 6.46 41.77 7.74C41.77 8.84 42.51 9.40 43.75 9.87C44.59 10.20 45.05 10.43 45.05 10.99C45.05 11.60 44.52 11.95 43.89 11.95C43.24 11.95 42.61 11.59 42.51 11.08L41.46 11.50C41.72 12.34 42.77 13.02 43.89 13.02Z"></path></g><!----><g data-v-423bf9ae="" id="ca105df6-9614-4b66-bc7d-603f9f61f84f" transform="matrix(1.0691555738449097,0,0,1.0691555738449097,-3.510624885559082,-0.5006228685379028)" stroke="none" fill="#7DE38D"><path d="M88.858 56.177l-1.843-.776a85.42 85.42 0 0 1-1.727 3.83l1.803.867a87.151 87.151 0 0 0 1.767-3.921zM48.285 84.656l-.164-.129-1.246 1.564 1.41 1.108 1.41-1.108-1.246-1.564zM16.303 38.092l1.967-.367a68.156 68.156 0 0 1-.332-1.925l-1.975.312c.101.646.215 1.307.34 1.98zM37.946 78.08c.464.472.938.942 1.42 1.411l1.395-1.434c-.473-.46-.937-.919-1.39-1.38l-1.425 1.404zM31.701 67.79L30.1 68.986c.396.53.802 1.06 1.22 1.59l1.572-1.235a82.782 82.782 0 0 1-1.19-1.553zM36.68 73.83l-1.486 1.339c.444.49.897.982 1.36 1.472l1.454-1.374a81.02 81.02 0 0 1-1.327-1.437zM27.334 61.304l-1.713 1.032c.34.567.693 1.135 1.056 1.704l1.687-1.074a77.565 77.565 0 0 1-1.03-1.662zM19.59 43.429l-1.925.537c.177.635.365 1.278.565 1.927l1.912-.589a71.429 71.429 0 0 1-.551-1.875zM23.655 54.41l-1.812.846c.28.6.571 1.202.874 1.807l1.789-.894a72.485 72.485 0 0 1-.85-1.76zM17.155 42.02l1.942-.479a67.533 67.533 0 0 1-.44-1.902l-1.956.422c.139.644.29 1.297.454 1.96zM40.815 80.87c.484.451.976.901 1.477 1.35l1.334-1.49c-.491-.44-.974-.88-1.447-1.322l-1.364 1.463zM18.848 47.804c.212.626.435 1.257.672 1.893l1.875-.694a72.205 72.205 0 0 1-.653-1.84l-1.894.641zM15.68 34.118l1.985-.25a65.08 65.08 0 0 1-.216-1.94l-1.99.191c.063.65.136 1.316.222 2zM21.018 53.425l1.834-.797a66.379 66.379 0 0 1-.752-1.8l-1.858.743c.246.614.505 1.232.776 1.854zM24.607 60.604l1.739-.988a70.264 70.264 0 0 1-.942-1.711l-1.765.94c.311.584.634 1.17.968 1.76zM43.795 83.54c.5.431 1.01.861 1.528 1.29l1.276-1.54c-.507-.42-1.006-.842-1.497-1.265l-1.307 1.514zM34.12 70.866l-1.544 1.272c.421.51.852 1.02 1.292 1.531l1.514-1.306c-.43-.499-.852-.998-1.263-1.497zM28.92 67.367l1.629-1.16a75.212 75.212 0 0 1-1.111-1.606l-1.66 1.116c.369.549.75 1.1 1.142 1.65zM15.195 28.102c.022.644.054 1.316.1 2.012l1.996-.13a64.027 64.027 0 0 1-.098-1.95l-1.998.068zM16.23 26.07h.014l.918-.003v-.061l.087-.007-.158-1.994c-.325.026-.652.049-.982.069l-.922.056-.017.924c-.006.33-.009.669-.008 1.019l1.069-.003zM29.361 23.585l-.63-1.897c-.617.204-1.248.4-1.892.583l.549 1.923c.672-.191 1.33-.395 1.973-.609zM25.39 24.72l-.467-1.945c-.634.152-1.278.293-1.937.423l.387 1.962a48.969 48.969 0 0 0 2.017-.44zM21.343 25.518l-.31-1.976c-.644.101-1.3.19-1.966.269l.233 1.986a52.545 52.545 0 0 0 2.043-.28zM40.473 18.143l-1.12-1.658c-.536.361-1.09.717-1.663 1.065l1.04 1.709c.6-.365 1.181-.737 1.743-1.116zM33.224 22.11l-.8-1.835c-.594.26-1.204.508-1.83.747l.714 1.868c.654-.25 1.292-.51 1.916-.78zM36.938 20.293l-.96-1.755c-.569.311-1.155.615-1.756.909l.879 1.797c.629-.308 1.24-.625 1.837-.95zM43.797 15.68l-1.264-1.55c-.5.408-1.02.814-1.561 1.214l1.191 1.606a46.48 46.48 0 0 0 1.634-1.27zM46.882 12.925l-1.399-1.43c-.459.45-.94.9-1.445 1.35l1.332 1.493a45.148 45.148 0 0 0 1.512-1.413zM48.22 11.436l.057-.054.058.055c.232-.249.456-.495.675-.74l.67-.627a40.579 40.579 0 0 1-.658-.72l-.745-.834-.745.834c-.213.238-.431.479-.658.72l.674.63c.218.244.44.49.672.736zM62.337 19.448a44.256 44.256 0 0 1-1.759-.91l-.959 1.754c.596.326 1.21.644 1.839.952l.879-1.796zM69.73 22.275a46.699 46.699 0 0 1-1.894-.585l-.631 1.898a47.28 47.28 0 0 0 1.976.61l.549-1.923zM55.58 15.34a43.13 43.13 0 0 1-1.564-1.216l-1.264 1.55c.524.427 1.07.852 1.634 1.272l1.193-1.606zM77.509 23.813a50.927 50.927 0 0 1-1.968-.268l-.309 1.976c.67.104 1.352.197 2.044.278l.233-1.986zM58.864 17.549c-.574-.35-1.13-.706-1.669-1.068l-1.115 1.66c.563.379 1.144.75 1.743 1.116l1.041-1.708zM51.179 14.33l1.33-1.492c-.505-.451-.987-.902-1.446-1.351l-1.399 1.428c.48.47.984.944 1.515 1.416zM73.587 23.2c-.66-.13-1.305-.271-1.939-.423l-.466 1.944c.659.159 1.332.306 2.018.441l.387-1.963zM65.969 21.024c-.626-.24-1.237-.49-1.835-.748l-.795 1.835c.623.27 1.262.531 1.915.781l.715-1.868zM79.439 26.077l.917-.006.01.001 1.073-.007a67.515 67.515 0 0 0-.013-1.012l-.02-.92-.92-.057c-.329-.02-.657-.043-.98-.069l-.16 1.994.093.007v.069zM68.262 62.96l1.683 1.079c.366-.57.72-1.138 1.06-1.705l-1.71-1.034a77.424 77.424 0 0 1-1.033 1.66zM72.13 56.167l1.79.895a75.46 75.46 0 0 0 .875-1.807l-1.813-.847c-.272.583-.556 1.17-.851 1.76zM79.939 40.053l-1.956-.421c-.134.625-.28 1.26-.44 1.903l1.942.479c.164-.664.315-1.317.454-1.96zM81.165 32.102l-1.992-.186a61.69 61.69 0 0 1-.21 1.941l1.984.247c.086-.685.157-1.353.218-2.002zM81.412 28.08l-2-.059a57.385 57.385 0 0 1-.089 1.948l1.996.125c.044-.697.074-1.37.093-2.014zM76.502 45.3l1.912.588c.2-.65.388-1.294.565-1.93l-1.928-.534a69.175 69.175 0 0 1-.549 1.876zM75.248 49l1.875.696c.236-.637.46-1.269.673-1.895l-1.895-.642A65.507 65.507 0 0 1 75.248 49zM49.99 83.276l1.276 1.54c.518-.43 1.028-.86 1.529-1.29L51.49 82.01c-.491.422-.991.845-1.5 1.266zM80.67 36.096l-1.977-.305c-.097.63-.206 1.272-.326 1.927l1.967.36c.124-.672.236-1.334.336-1.982zM63.72 69.334l1.571 1.237c.418-.53.825-1.06 1.223-1.589l-1.6-1.201a83.342 83.342 0 0 1-1.193 1.553zM61.224 72.352l1.511 1.308c.442-.51.873-1.02 1.295-1.529l-1.54-1.275c-.413.498-.835.997-1.266 1.496zM52.965 80.717l1.336 1.49c.5-.45.993-.9 1.476-1.35l-1.363-1.463c-.474.442-.957.883-1.45 1.323zM67.7 67.362c.39-.55.773-1.099 1.143-1.647l-1.656-1.12c-.363.535-.735 1.07-1.117 1.608l1.63 1.159zM58.592 75.256l1.453 1.374c.463-.49.917-.98 1.361-1.47l-1.482-1.342c-.435.48-.88.958-1.332 1.438zM55.836 78.044l1.394 1.433c.483-.469.957-.938 1.421-1.408l-1.422-1.406c-.456.46-.92.92-1.393 1.38zM76.4 51.57l-1.856-.747c-.24.596-.492 1.197-.755 1.803l1.834.797c.27-.622.528-1.24.776-1.852zM72.995 58.846l-1.764-.944c-.304.568-.619 1.139-.945 1.712l1.738.989c.334-.588.659-1.174.971-1.757zM83.747 62.28c-3.764 7.098-8.632 13.854-14.466 20.081l1.46 1.368c5.954-6.357 10.925-13.258 14.774-20.511l-1.768-.938zM21.108 11.494a36.516 36.516 0 0 0 2.01-.432l-.476-1.942c-.616.15-1.25.287-1.899.409l.365 1.965zM33.148 4.339c-.521.375-1.061.737-1.604 1.075l1.057 1.699c.582-.363 1.159-.75 1.716-1.152l-1.17-1.622zM17.045 12.034c.695-.057 1.374-.13 2.036-.217l-.26-1.983c-.63.083-1.278.153-1.94.207l.164 1.993zM25.102 10.514c.67-.207 1.32-.43 1.95-.668l-.706-1.87c-.591.222-1.202.432-1.833.627l.59 1.91zM29.87 6.381c-.558.298-1.136.583-1.735.854l.824 1.823c.627-.283 1.25-.59 1.852-.912l-.94-1.765zM73.444 11.062c.653.16 1.322.304 2.01.432l.365-1.965a34.602 34.602 0 0 1-1.898-.41l-.477 1.943zM66.692 6.381l-.941 1.765c.603.321 1.226.629 1.853.912l.824-1.822c-.6-.271-1.178-.557-1.736-.854zM63.415 4.34l-1.17 1.621c.558.402 1.135.79 1.717 1.152l1.056-1.698a28.5 28.5 0 0 1-1.603-1.076zM70.217 7.975l-.707 1.871c.63.238 1.28.46 1.95.668l.59-1.911a31.174 31.174 0 0 1-1.833-.628zM77.481 11.817c.662.087 1.341.16 2.036.217l.165-1.993a39.72 39.72 0 0 1-1.94-.207l-.26 1.983z"></path><path d="M8.072 16.003c-1.392 6.952-1.34 17.077 1.3 27.875C12.855 58.122 22.335 78.85 47.71 96.706l.575.406.576-.406C74.226 78.84 83.704 58.114 87.19 43.872c2.641-10.799 2.693-20.921 1.302-27.869-.543.03-2.216.179-4.488.179H84c-16.873 0-26.282-8.092-31.203-14.88l-.3-.414h-8.443l-.3.414C35.132 13.21 22.689 16.792 8.073 16.003zM45.07 2.888h6.411c5.274 7.077 15.143 15.295 32.522 15.294.932 0 1.887-.025 2.846-.073.914 6.254 4.703 45.713-38.565 76.554C5.06 63.87 8.808 24.37 9.716 18.109c14.329.722 26.968-3.955 35.354-15.22z"></path><path d="M29.525 43.18l2.204 7.253 5.779-.552c.13.162.264.321.404.477l-1.666 5.578 6.683 3.569 3.789-4.584c.156.017.312.03.469.042l2.83 5.243 7.245-2.201-.562-5.927c.123-.095.247-.196.373-.301l5.7 1.71 3.57-6.686-4.49-3.699c.028-.206.052-.418.07-.636l5.114-2.749-2.204-7.253-5.6.533c-.172-.231-.346-.45-.524-.66l1.608-5.377-6.684-3.569-3.498 4.233c-.33-.047-.658-.08-.983-.1l-2.607-4.833-7.254 2.203.527 5.462c-.26.2-.513.41-.76.632l-5.27-1.578-3.569 6.685 4.334 3.573c-.032.28-.057.563-.072.845l-4.956 2.666zm3.229-7.587l2.028-3.798 4.82 1.444c.861-.728-.26-.015 2.317-1.927l-.48-4.98 4.122-1.253 2.382 4.418c2.983.122 2.08.2 2.99.3l3.2-3.872 3.799 2.03-1.464 4.896c1.835 2.066 1.25 1.557 1.79 2.247l5.137-.488 1.251 4.121-4.656 2.504-.026.565c-.054 1.114-.221 1.702-.289 2.1l4.132 3.404L61.78 51.1l-5.204-1.561c-1.906 1.675-1.336 1.076-1.975 1.577l.517 5.45L51 57.817l-2.596-4.808c-.98-.08.052.116-2.515-.224l-3.46 4.186-3.798-2.029 1.53-5.126c-.65-.755-.073.126-1.725-2.033l-5.27.503-1.252-4.121 4.542-2.444c.086-1.126-.172.19.242-2.877l-3.944-3.251z"></path><path d="M54.911 44.989a7.47 7.47 0 0 0 .562-5.725c-1.975-6.502-10.719-7.163-13.822-1.356a7.47 7.47 0 0 0-.561 5.725c1.955 6.437 10.684 7.225 13.821 1.356zm-11.495-6.14c2.299-4.302 8.706-3.734 10.143.996a5.476 5.476 0 0 1-.412 4.202c-2.299 4.302-8.707 3.735-10.143-.995a5.477 5.477 0 0 1 .412-4.202zM71.997 93.837h2v2h-2zM67.997 93.837h2v2h-2zM63.997 93.837h2v2h-2zM88.122 73.283h2v2h-2zM92.122 73.283h2v2h-2zM84.122 73.283h2v2h-2zM88.752 87.18h-2.405v-2.405h-2v2.405H81.94v2h2.406v2.405h2V89.18h2.405zM24.003 93.837h2v2h-2zM28.003 93.837h2v2h-2zM32.003 93.837h2v2h-2zM7.878 73.283h2v2h-2zM3.878 73.283h2v2h-2zM11.878 73.283h2v2h-2zM11.653 91.585h2V89.18h2.406v-2h-2.406v-2.405h-2v2.405H9.248v2h2.405z"></path></g><!----></svg>