<svg data-v-423bf9ae="" xmlns="http://www.w3.org/2000/svg" viewBox="0 0 183.06123620716062 60" class="font"><!----><!----><!----><g data-v-423bf9ae="" id="04cdd55c-ef03-45c9-8a83-fd39adb01132" fill="black" transform="matrix(4.081632614135742,0,0,4.081632614135742,-5.224491596221924,-9.71428394317627)"><path d="M6.46 7.56C7.39 7.14 8.00 6.30 8.00 5.18C8.00 3.54 6.70 2.38 5.09 2.38L1.28 2.38L1.28 12.88L5.46 12.88C7.05 12.88 8.33 11.74 8.33 10.12C8.33 8.84 7.56 7.93 6.46 7.56ZM6.88 5.27C6.88 6.30 6.02 7.09 4.97 7.09L2.38 7.09L2.38 3.50L4.97 3.50C6.02 3.50 6.88 4.23 6.88 5.27ZM5.32 11.76L2.38 11.76L2.38 8.17L5.32 8.17C6.35 8.17 7.21 8.96 7.21 9.99C7.21 11.03 6.35 11.76 5.32 11.76ZM14.93 5.88L12.76 11.62L10.52 5.88L9.31 5.88L12.18 12.93L10.50 17.08L11.66 17.08L13.14 13.41L16.15 5.88ZM21.23 5.74C20.23 5.74 19.34 6.14 18.67 6.79L18.67 5.88L17.59 5.88L17.59 17.08L18.67 17.08L18.67 11.97C19.34 12.62 20.23 13.02 21.23 13.02C23.24 13.02 24.87 11.39 24.87 9.38C24.87 7.37 23.24 5.74 21.23 5.74ZM21.23 11.94C19.81 11.94 18.67 10.80 18.67 9.38C18.67 7.96 19.81 6.83 21.23 6.83C22.65 6.83 23.78 7.96 23.78 9.38C23.78 10.80 22.65 11.94 21.23 11.94ZM34.44 11.97C34.05 11.97 33.72 11.71 33.72 11.06L33.72 5.88L32.64 5.88L32.64 6.79C31.99 6.14 31.08 5.74 30.08 5.74C28.07 5.74 26.44 7.37 26.44 9.38C26.44 11.39 28.07 13.02 30.08 13.02C31.13 13.02 32.08 12.53 32.74 11.81C32.97 12.53 33.53 13.02 34.35 13.02C34.55 13.02 34.74 12.97 34.88 12.88L34.88 11.97ZM30.08 11.94C28.67 11.94 27.53 10.80 27.53 9.38C27.53 7.96 28.67 6.83 30.08 6.83C31.48 6.83 32.64 7.96 32.64 9.38C32.64 10.80 31.48 11.94 30.08 11.94ZM38.10 13.02C39.32 13.02 40.34 12.20 40.34 10.99C40.34 9.73 39.29 9.24 38.38 8.87C37.52 8.51 37.08 8.31 37.08 7.70C37.08 7.11 37.49 6.83 38.06 6.83C38.52 6.83 38.92 7.02 39.11 7.39L40.06 6.90C39.80 6.27 38.90 5.74 38.01 5.74C36.98 5.74 35.98 6.46 35.98 7.74C35.98 8.84 36.72 9.40 37.96 9.87C38.80 10.20 39.25 10.43 39.25 10.99C39.25 11.60 38.73 11.95 38.10 11.95C37.45 11.95 36.82 11.59 36.72 11.08L35.67 11.50C35.93 12.34 36.98 13.02 38.10 13.02ZM43.89 13.02C45.12 13.02 46.13 12.20 46.13 10.99C46.13 9.73 45.08 9.24 44.17 8.87C43.31 8.51 42.88 8.31 42.88 7.70C42.88 7.11 43.28 6.83 43.86 6.83C44.31 6.83 44.71 7.02 44.91 7.39L45.85 6.90C45.59 6.27 44.70 5.74 43.80 5.74C42.77 5.74 41.77 6.46 41.77 7.74C41.77 8.84 42.51 9.40 43.75 9.87C44.59 10.20 45.05 10.43 45.05 10.99C45.05 11.60 44.52 11.95 43.89 11.95C43.24 11.95 42.61 11.59 42.51 11.08L41.46 11.50C41.72 12.34 42.77 13.02 43.89 13.02Z"></path></g><!----><!----></svg>